<?xml version="1.0"?>
<svg xmlns="http://www.w3.org/2000/svg" id="Capa_1" enable-background="new 0 0 512.221 512.221" height="512px" viewBox="0 0 512.221 512.221" width="512px" class=""><g><g><path d="m263.622 243.098c-7.173-4.142-16.381-1.676-20.523 5.5-4.142 7.174-1.675 16.381 5.5 20.523 7.174 4.142 16.381 1.676 20.523-5.5 4.142-7.173 1.675-16.38-5.5-20.523z" data-original="#000000" class="active-path" data-old_color="#000000" fill="#FFFFFF"/><path d="m309.111 164.311c-16.285-9.402-34.38-14.205-52.731-14.205-9.23 0-18.524 1.215-27.689 3.67-27.384 7.338-50.247 24.858-64.378 49.334s-17.872 53.036-10.535 80.421c7.338 27.384 24.858 50.247 49.334 64.378 24.477 14.132 53.035 17.872 80.421 10.535 27.384-7.338 50.247-24.858 64.378-49.334s17.872-53.036 10.535-80.421c-7.339-27.384-24.86-50.247-49.335-64.378zm-14.008 114.311c-8.33 14.427-23.497 22.504-39.068 22.504-7.634 0-15.362-1.939-22.436-6.023-21.5-12.414-28.894-40.004-16.48-61.504 12.414-21.499 40.003-28.895 61.504-16.48 21.499 12.413 28.893 40.003 16.48 61.503z" data-original="#000000" class="active-path" data-old_color="#000000" fill="#FFFFFF"/><path d="m503.388 189.852c-17.698-66.05-60.059-121.255-119.277-155.444s-128.208-43.272-194.258-25.575c-66.05 17.698-121.255 60.058-155.445 119.277-34.19 59.219-43.273 128.208-25.575 194.258s60.059 121.255 119.277 155.444c39.448 22.775 83.222 34.41 127.584 34.408 22.233-.001 44.622-2.925 66.674-8.833 66.05-17.698 121.255-60.059 155.444-119.277 34.191-59.219 43.274-128.208 25.576-194.258zm-36.218 51.246v30.023h-30v-30.023zm-133.53 179.321 26.002-15.012 15 25.98-26.002 15.012zm40.25-96.309c-18.138 31.415-47.47 53.9-82.595 63.312-11.745 3.147-23.668 4.705-35.502 4.705-23.553 0-46.772-6.165-67.683-18.237-31.415-18.138-53.9-47.47-63.312-82.595-9.411-35.124-4.605-71.77 13.532-103.185s47.47-53.9 82.595-63.312c35.121-9.411 71.769-4.605 103.185 13.532 31.415 18.138 53.9 47.47 63.312 82.595 9.411 35.125 4.606 71.77-13.532 103.185zm-210.309 122.289-26.002-15.012 15-25.98 26.002 15.012zm15-354.598-26.002 15.012-15-25.98 26.002-15.012zm155.059 0 15-25.98 26.002 15.012-15 25.98zm-258.589 149.297v30.023h-30v-30.023z" data-original="#000000" class="active-path" data-old_color="#000000" fill="#FFFFFF"/></g></g> </svg>
